{"title":"Formula 1 2007 Round 15 Japan Race","uid":9651083,"size":1768908895,"categoryP":"video","categoryS":"tv_shows","magnet":"?xt=urn:btih:96b4406cb56947786a221a2594c9c12315c95d71&amp;dn=Formula+1+2007+Round+15+Japan+Race&amp;tr=udp%3A%2F%2Ftracker.openbittorrent.com%3A80&amp;tr=udp%3A%2F%2Fopen.demonii.com%3A1337&amp;tr=udp%3A%2F%2Ftracker.coppersurfer.tk%3A6969&amp;tr=udp%3A%2F%2Fexodus.desync.com%3A6969","seeders":1,"leechers":0,"uploader":"totocon","files":1,"time":1393030738,"description":"ITV broadcast\n\nFormat                                   : Matroska\nFormat version                           : Version 4 / Version 2\nFile size                                : 1.65 GiB\nDuration                                 : 3h 18mn\nOverall bit rate mode                    : Variable\nOverall bit rate                         : 1 187 Kbps\nEncoded date                             : UTC 2014-02-22 11:11:15\nWriting application                      : mkvmerge v6.3.0 ('You can't stop me!') built on Jun 27 2013 22:06:07\nWriting library                          : libebml v1.3.0 + libmatroska v1.4.0\n\nVideo\nID                                       : 1\nFormat                                   : MPEG-4 Visual\nFormat profile                           : Advanced Simple@L5\nFormat settings, BVOP                    : Yes\nFormat settings, QPel                    : No\nFormat settings, GMC                     : No warppoints\nFormat settings, Matrix                  : Default (H.263)\nCodec ID                                 : V_MS/VFW/FOURCC / DX50\nCodec ID/Hint                            : DivX 5\nDuration                                 : 3h 18mn\nBit rate                                 : 1 066 Kbps\nWidth                                    : 640 pixels\nHeight                                   : 352 pixels\nDisplay aspect ratio                     : 16:9\nFrame rate mode                          : Constant\nFrame rate                               : 25.000 fps\nColor space                              : YUV\nChroma subsampling                       : 4:2:0\nBit depth                                : 8 bits\nScan type                                : Progressive\nCompression mode                         : Lossy\nBits/(Pixel*Frame)                       : 0.189\nStream size                              : 1.48 GiB (90%)\nWriting library                          : XviD 1.1.2 (UTC 2006-11-01)\nDefault                                  : Yes\nForced                                   : No\n\nAudio\nID                                       : 2\nFormat                                   : MPEG Audio\nFormat version                           : Version 1\nFormat profile                           : Layer 3\nMode                                     : Joint stereo\nMode extension                           : MS Stereo\nCodec ID                                 : A_MPEG/L3\nCodec ID/Hint                            : MP3\nDuration                                 : 3h 18mn\nBit rate mode                            : Variable\nBit rate                                 : 97.2 Kbps\nChannel(s)                               : 2 channels\nSampling rate                            : 44.1 KHz\nCompression mode                         : Lossy\nStream size                              : 138 MiB (8%)\nDefault                                  : Yes\nForced                                   : No\n\n","torrent":{"xt":"urn:btih:96b4406cb56947786a221a2594c9c12315c95d71","amp;dn":"Formula+1+2007+Round+15+Japan+Race","amp;tr":["udp%3A%2F%2Ftracker.openbittorrent.com%3A80","udp%3A%2F%2Fopen.demonii.com%3A1337","udp%3A%2F%2Ftracker.coppersurfer.tk%3A6969","udp%3A%2F%2Fexodus.desync.com%3A6969"],"infoHash":"96b4406cb56947786a221a2594c9c12315c95d71","infoHashBuffer":{"type":"Buffer","data":[150,180,64,108,181,105,71,120,106,34,26,37,148,201,193,35,21,201,93,113]},"announce":[],"urlList":[]}}